# xmcd CD database file
# Generated: Tue Dec 16 14:58:44 2003 by KSCD
# 
# Track frame offsets:
#       182
#       10052
#       21200
#       33127
#       45150
#       60542
#       77152
#       88605
#       99477
#       111490
#       121397
#       133012
#       144790
#       157015
#       169417
#       179105
#       192342
#       202665
#       215175
#       226670
#
# Disc length: 3160 seconds
#
# Revision: 2
# Processed by: cddbd v1.4PL0 Copyright (c) Steve Scherf et al.
# Submitted via: Kscd 1.3.3
#
DISCID=0b0c5614
DTITLE=John Lee Hooker - Audio Archive Collectors Edition
DYEAR=1900
DGENRE=
TTITLE0=Dimples
TTITLE1=Boom Boom
TTITLE2=Whiskey and Wimmen
TTITLE3=Frisco Blues
TTITLE4=Tupelo
TTITLE5=Process
TTITLE6=Good Rockin  Mama
TTITLE7=No Shoe
TTITLE8=I m In The Mood
TTITLE9=Dusty Road
TTITLE10=Boogie Chillum
TTITLE11=Hard Hearted Woman
TTITLE12=Drug Store Woman
TTITLE13=Hobo Blues
TTITLE14=Onions
TTITLE15=Baby Lee
TTITLE16=I m Leaving
TTITLE17=Trouble Blues
TTITLE18=Little Wheel
TTITLE19=Old Time Shimmy
EXTD=
EXTT0=
EXTT1=
EXTT2=
EXTT3=
EXTT4=
EXTT5=
EXTT6=
EXTT7=
EXTT8=
EXTT9=
EXTT10=
EXTT11=
EXTT12=
EXTT13=
EXTT14=
EXTT15=
EXTT16=
EXTT17=
EXTT18=
EXTT19=
PLAYORDER=
